<svg width="198" height="178" viewBox="0 0 198 178" fill="none" xmlns="http://www.w3.org/2000/svg">
<path d="M20.3333 20.3337H49.8333L69.5 0.666992H128.5L148.167 20.3337H177.667C182.883 20.3337 187.885 22.4057 191.573 26.0939C195.261 29.7821 197.333 34.7844 197.333 40.0003V158C197.333 163.216 195.261 168.219 191.573 171.907C187.885 175.595 182.883 177.667 177.667 177.667H20.3333C15.1174 177.667 10.1151 175.595 6.42686 171.907C2.73864 168.219 0.666626 163.216 0.666626 158V40.0003C0.666626 34.7844 2.73864 29.7821 6.42686 26.0939C10.1151 22.4057 15.1174 20.3337 20.3333 20.3337ZM99 49.8337C85.9602 49.8337 73.4544 55.0137 64.2339 64.2342C55.0133 73.4548 49.8333 85.9605 49.8333 99.0003C49.8333 112.04 55.0133 124.546 64.2339 133.766C73.4544 142.987 85.9602 148.167 99 148.167C112.04 148.167 124.546 142.987 133.766 133.766C142.987 124.546 148.167 112.04 148.167 99.0003C148.167 85.9605 142.987 73.4548 133.766 64.2342C124.546 55.0137 112.04 49.8337 99 49.8337ZM99 69.5003C106.824 69.5003 114.327 72.6083 119.86 78.1407C125.392 83.673 128.5 91.1764 128.5 99.0003C128.5 106.824 125.392 114.328 119.86 119.86C114.327 125.392 106.824 128.5 99 128.5C91.1761 128.5 83.6726 125.392 78.1403 119.86C72.608 114.328 69.5 106.824 69.5 99.0003C69.5 91.1764 72.608 83.673 78.1403 78.1407C83.6726 72.6083 91.1761 69.5003 99 69.5003Z" fill="#3A2F1F" fill-opacity="0.5"/>
</svg>
