<svg width="206" height="206" viewBox="0 0 206 206" fill="none" xmlns="http://www.w3.org/2000/svg">
<path d="M206 102.897C206 46.0925 159.856 0 103 0C46.144 0 0 46.0925 0 102.897C0 134.183 14.214 162.38 36.462 181.306C36.668 181.512 36.874 181.512 36.874 181.718C38.728 183.16 40.582 184.602 42.642 186.044C43.672 186.662 44.496 187.473 45.526 188.297C62.5545 199.823 82.6433 205.989 103.206 206C123.769 205.989 143.857 199.823 160.886 188.297C161.916 187.679 162.74 186.868 163.77 186.237C165.624 184.808 167.684 183.366 169.538 181.924C169.744 181.718 169.95 181.718 169.95 181.512C191.786 162.367 206 134.183 206 102.897ZM103 193.035C83.636 193.035 65.92 186.855 51.294 176.568C51.5 174.92 51.912 173.285 52.324 171.637C53.5555 167.172 55.3556 162.884 57.68 158.878C59.946 154.964 62.624 151.462 65.92 148.372C69.01 145.282 72.718 142.41 76.426 140.144C80.34 137.878 84.46 136.23 88.992 134.994C93.5607 133.771 98.2702 133.152 103 133.153C117.043 133.047 130.572 138.434 140.698 148.166C145.436 152.904 149.144 158.461 151.822 164.839C153.264 168.547 154.294 172.456 154.912 176.568C139.709 187.256 121.584 193.005 103 193.035ZM71.482 97.7599C69.6706 93.6029 68.758 89.1101 68.804 84.5759C68.804 80.0567 69.628 75.5247 71.482 71.4047C73.336 67.2848 75.808 63.5896 78.898 60.4996C81.988 57.4096 85.696 54.9505 89.816 53.0965C93.936 51.2425 98.468 50.4185 103 50.4185C107.738 50.4185 112.064 51.2425 116.184 53.0965C120.304 54.9505 124.012 57.4225 127.102 60.4996C130.192 63.5896 132.664 67.2976 134.518 71.4047C136.372 75.5247 137.196 80.0567 137.196 84.5759C137.196 89.3139 136.372 93.6399 134.518 97.747C132.739 101.812 130.225 105.513 127.102 108.665C123.949 111.783 120.248 114.293 116.184 116.068C107.67 119.559 98.124 119.559 89.61 116.068C85.5463 114.293 81.845 111.783 78.692 108.665C75.5665 105.558 73.1125 101.854 71.482 97.7599ZM167.066 166.075C167.066 165.663 166.86 165.457 166.86 165.045C164.838 158.598 161.851 152.495 158.002 146.942C154.15 141.349 149.419 136.415 143.994 132.329C139.849 129.21 135.356 126.583 130.604 124.501C132.756 123.062 134.757 121.41 136.578 119.57C139.649 116.538 142.346 113.149 144.612 109.476C149.19 101.987 151.547 93.3522 151.41 84.5759C151.477 78.0803 150.215 71.6396 147.702 65.6496C145.224 59.8771 141.657 54.636 137.196 50.2125C132.731 45.8485 127.492 42.3555 121.746 39.9125C115.747 37.4 109.297 36.1424 102.794 36.2174C96.2898 36.1465 89.8399 37.4084 83.842 39.9254C78.0334 42.3385 72.7767 45.9087 68.392 50.4185C64.0052 54.86 60.509 60.0999 58.092 65.8556C55.5785 71.8456 54.3167 78.2863 54.384 84.7819C54.384 89.3139 55.002 93.6356 56.238 97.747C57.474 102.073 59.122 105.987 61.388 109.682C63.448 113.39 66.332 116.686 69.422 119.776C71.276 121.63 73.336 123.274 75.602 124.707C70.8292 126.832 66.3328 129.53 62.212 132.741C56.856 136.861 52.118 141.792 48.204 147.148C44.3193 152.68 41.33 158.789 39.346 165.251C39.14 165.663 39.14 166.075 39.14 166.281C22.866 149.813 12.772 127.591 12.772 102.897C12.772 53.3025 53.354 12.7591 103 12.7591C152.646 12.7591 193.228 53.3025 193.228 102.897C193.201 126.586 183.795 149.301 167.066 166.075Z" fill="#3A2F1F" fill-opacity="0.5"/>
</svg>
